<svg width="16" height="16" viewBox="0 0 16 16" fill="none" xmlns="http://www.w3.org/2000/svg">
<path d="M12 1C13.6569 1 15 2.34315 15 4V8C15 9.65685 13.6569 11 12 11H11V12C11 13.6569 9.65685 15 8 15H4C2.34315 15 1 13.6569 1 12V8C1 6.34315 2.34315 5 4 5H5V4C5 2.34315 6.34315 1 8 1H12ZM4 6.2002C3.00589 6.2002 2.2002 7.00589 2.2002 8V12C2.2002 12.9941 3.00589 13.7998 4 13.7998H8C8.99411 13.7998 9.7998 12.9941 9.7998 12V8C9.7998 7.00589 8.99411 6.2002 8 6.2002H4ZM8 2.5C7.17157 2.5 6.5 3.17157 6.5 4V5H8C9.65685 5 11 6.34315 11 8V9.5H12C12.8284 9.5 13.5 8.82843 13.5 8V4C13.5 3.17157 12.8284 2.5 12 2.5H8Z" fill="#F5F5F5"/>
</svg>
