<svg width="16" height="16" viewBox="0 0 16 16" fill="none" xmlns="http://www.w3.org/2000/svg">
<path d="M7.75781 1C8.45379 1.0001 9.1245 1.24244 9.6582 1.67969L9.87891 1.87891L13.1211 5.12109C13.6836 5.6836 13.9999 6.4467 14 7.24219V12C14 13.6569 12.6569 15 11 15H5L4.8457 14.9961C3.31166 14.9184 2.08162 13.6883 2.00391 12.1543L2 12V4L2.00391 3.8457C2.08163 2.31166 3.31166 1.08163 4.8457 1.00391L5 1H7.75781ZM8 6.65039C8.33137 6.65039 8.59961 6.91863 8.59961 7.25V9.80273L9.57617 8.82617C9.81049 8.59186 10.1895 8.59186 10.4238 8.82617C10.6581 9.06049 10.6581 9.43951 10.4238 9.67383L8.42383 11.6738C8.18951 11.9081 7.81049 11.9081 7.57617 11.6738L5.57617 9.67383C5.34186 9.43951 5.34186 9.06049 5.57617 8.82617C5.81049 8.59186 6.18951 8.59186 6.42383 8.82617L7.40039 9.80273V7.25C7.40039 6.91863 7.66863 6.65039 8 6.65039ZM3.2002 12C3.2002 12.9941 4.00589 13.7998 5 13.7998H11C11.9941 13.7998 12.7998 12.9941 12.7998 12V7.24219C12.7997 6.76496 12.6099 6.30719 12.2725 5.96973L9.03027 2.72754C8.69281 2.39008 8.23504 2.20032 7.75781 2.2002H5C4.00589 2.2002 3.2002 3.00589 3.2002 4V12Z" fill="#F5F5F5"/>
</svg>
